<svg viewBox="0 0 57 57" version="1.1" xmlns="http://www.w3.org/2000/svg" fill="black"><rect x="2" y="2" width="3" height="3"/><rect x="0.5" y="0.5" width="6" height="6" fill="transparent" stroke="black"/><rect x="52" y="2" width="3" height="3"/><rect x="50.5" y="0.5" width="6" height="6" fill="transparent" stroke="black"/><rect x="2" y="52" width="3" height="3"/><rect x="0.5" y="50.5" width="6" height="6" fill="transparent" stroke="black"/><rect x="9" y="0" width="2" height="1"/><rect x="12" y="0" width="1" height="1"/><rect x="14" y="0" width="5" height="1"/><rect x="20" y="0" width="2" height="1"/><rect x="23" y="0" width="4" height="1"/><rect x="29" y="0" width="7" height="1"/><rect x="37" y="0" width="2" height="1"/><rect x="40" y="0" width="1" height="1"/><rect x="42" y="0" width="6" height="1"/><rect x="11" y="1" width="3" height="1"/><rect x="15" y="1" width="3" height="1"/><rect x="22" y="1" width="4" height="1"/><rect x="30" y="1" width="1" height="1"/><rect x="33" y="1" width="1" height="1"/><rect x="35" y="1" width="1" height="1"/><rect x="38" y="1" width="5" height="1"/><rect x="47" y="1" width="1" height="1"/><rect x="9" y="2" width="1" height="1"/><rect x="11" y="2" width="1" height="1"/><rect x="13" y="2" width="1" height="1"/><rect x="15" y="2" width="1" height="1"/><rect x="17" y="2" width="1" height="1"/><rect x="19" y="2" width="2" height="1"/><rect x="22" y="2" width="4" height="1"/><rect x="29" y="2" width="2" height="1"/><rect x="32" y="2" width="3" height="1"/><rect x="37" y="2" width="1" height="1"/><rect x="39" y="2" width="1" height="1"/><rect x="44" y="2" width="1" height="1"/><rect x="46" y="2" width="2" height="1"/><rect x="18" y="3" width="1" height="1"/><rect x="21" y="3" width="1" height="1"/><rect x="24" y="3" width="1" height="1"/><rect x="29" y="3" width="2" height="1"/><rect x="35" y="3" width="1" height="1"/><rect x="37" y="3" width="3" height="1"/><rect x="45" y="3" width="1" height="1"/><rect x="47" y="3" width="1" height="1"/><rect x="9" y="4" width="4" height="1"/><rect x="14" y="4" width="2" height="1"/><rect x="19" y="4" width="1" height="1"/><rect x="22" y="4" width="1" height="1"/><rect x="24" y="4" width="7" height="1"/><rect x="32" y="4" width="1" height="1"/><rect x="36" y="4" width="1" height="1"/><rect x="38" y="4" width="2" height="1"/><rect x="42" y="4" width="2" height="1"/><rect x="45" y="4" width="1" height="1"/><rect x="47" y="4" width="1" height="1"/><rect x="8" y="5" width="1" height="1"/><rect x="10" y="5" width="1" height="1"/><rect x="12" y="5" width="8" height="1"/><rect x="22" y="5" width="2" height="1"/><rect x="25" y="5" width="2" height="1"/><rect x="30" y="5" width="1" height="1"/><rect x="34" y="5" width="1" height="1"/><rect x="37" y="5" width="1" height="1"/><rect x="42" y="5" width="3" height="1"/><rect x="46" y="5" width="1" height="1"/><rect x="8" y="6" width="1" height="1"/><rect x="10" y="6" width="1" height="1"/><rect x="12" y="6" width="1" height="1"/><rect x="14" y="6" width="1" height="1"/><rect x="16" y="6" width="1" height="1"/><rect x="18" y="6" width="1" height="1"/><rect x="20" y="6" width="1" height="1"/><rect x="22" y="6" width="1" height="1"/><rect x="24" y="6" width="1" height="1"/><rect x="26" y="6" width="1" height="1"/><rect x="28" y="6" width="1" height="1"/><rect x="30" y="6" width="1" height="1"/><rect x="32" y="6" width="1" height="1"/><rect x="34" y="6" width="1" height="1"/><rect x="36" y="6" width="1" height="1"/><rect x="38" y="6" width="1" height="1"/><rect x="40" y="6" width="1" height="1"/><rect x="42" y="6" width="1" height="1"/><rect x="44" y="6" width="1" height="1"/><rect x="46" y="6" width="1" height="1"/><rect x="48" y="6" width="1" height="1"/><rect x="13" y="7" width="1" height="1"/><rect x="16" y="7" width="1" height="1"/><rect x="18" y="7" width="4" height="1"/><rect x="25" y="7" width="2" height="1"/><rect x="30" y="7" width="1" height="1"/><rect x="32" y="7" width="1" height="1"/><rect x="34" y="7" width="4" height="1"/><rect x="41" y="7" width="1" height="1"/><rect x="44" y="7" width="1" height="1"/><rect x="48" y="7" width="1" height="1"/><rect x="0" y="8" width="1" height="1"/><rect x="3" y="8" width="1" height="1"/><rect x="5" y="8" width="2" height="1"/><rect x="8" y="8" width="2" height="1"/><rect x="11" y="8" width="1" height="1"/><rect x="13" y="8" width="1" height="1"/><rect x="15" y="8" width="1" height="1"/><rect x="18" y="8" width="2" height="1"/><rect x="21" y="8" width="1" height="1"/><rect x="25" y="8" width="7" height="1"/><rect x="34" y="8" width="1" height="1"/><rect x="36" y="8" width="2" height="1"/><rect x="40" y="8" width="1" height="1"/><rect x="42" y="8" width="2" height="1"/><rect x="45" y="8" width="1" height="1"/><rect x="49" y="8" width="1" height="1"/><rect x="51" y="8" width="1" height="1"/><rect x="0" y="9" width="1" height="1"/><rect x="3" y="9" width="3" height="1"/><rect x="8" y="9" width="1" height="1"/><rect x="12" y="9" width="1" height="1"/><rect x="14" y="9" width="2" height="1"/><rect x="17" y="9" width="1" height="1"/><rect x="21" y="9" width="1" height="1"/><rect x="23" y="9" width="1" height="1"/><rect x="32" y="9" width="1" height="1"/><rect x="36" y="9" width="2" height="1"/><rect x="39" y="9" width="2" height="1"/><rect x="45" y="9" width="1" height="1"/><rect x="47" y="9" width="1" height="1"/><rect x="49" y="9" width="1" height="1"/><rect x="51" y="9" width="2" height="1"/><rect x="56" y="9" width="1" height="1"/><rect x="2" y="10" width="3" height="1"/><rect x="6" y="10" width="1" height="1"/><rect x="10" y="10" width="1" height="1"/><rect x="12" y="10" width="1" height="1"/><rect x="14" y="10" width="1" height="1"/><rect x="16" y="10" width="1" height="1"/><rect x="19" y="10" width="1" height="1"/><rect x="23" y="10" width="1" height="1"/><rect x="26" y="10" width="1" height="1"/><rect x="28" y="10" width="2" height="1"/><rect x="33" y="10" width="3" height="1"/><rect x="41" y="10" width="1" height="1"/><rect x="44" y="10" width="1" height="1"/><rect x="46" y="10" width="4" height="1"/><rect x="53" y="10" width="4" height="1"/><rect x="3" y="11" width="3" height="1"/><rect x="7" y="11" width="3" height="1"/><rect x="11" y="11" width="1" height="1"/><rect x="13" y="11" width="3" height="1"/><rect x="18" y="11" width="1" height="1"/><rect x="25" y="11" width="2" height="1"/><rect x="28" y="11" width="4" height="1"/><rect x="34" y="11" width="1" height="1"/><rect x="36" y="11" width="5" height="1"/><rect x="43" y="11" width="1" height="1"/><rect x="45" y="11" width="3" height="1"/><rect x="49" y="11" width="2" height="1"/><rect x="52" y="11" width="2" height="1"/><rect x="56" y="11" width="1" height="1"/><rect x="6" y="12" width="2" height="1"/><rect x="9" y="12" width="1" height="1"/><rect x="11" y="12" width="1" height="1"/><rect x="14" y="12" width="1" height="1"/><rect x="16" y="12" width="1" height="1"/><rect x="19" y="12" width="1" height="1"/><rect x="22" y="12" width="4" height="1"/><rect x="28" y="12" width="5" height="1"/><rect x="35" y="12" width="2" height="1"/><rect x="39" y="12" width="3" height="1"/><rect x="43" y="12" width="5" height="1"/><rect x="50" y="12" width="4" height="1"/><rect x="55" y="12" width="2" height="1"/><rect x="0" y="13" width="2" height="1"/><rect x="4" y="13" width="1" height="1"/><rect x="7" y="13" width="4" height="1"/><rect x="12" y="13" width="3" height="1"/><rect x="22" y="13" width="2" height="1"/><rect x="25" y="13" width="1" height="1"/><rect x="28" y="13" width="2" height="1"/><rect x="31" y="13" width="7" height="1"/><rect x="39" y="13" width="1" height="1"/><rect x="43" y="13" width="4" height="1"/><rect x="49" y="13" width="1" height="1"/><rect x="51" y="13" width="1" height="1"/><rect x="53" y="13" width="1" height="1"/><rect x="55" y="13" width="2" height="1"/><rect x="1" y="14" width="3" height="1"/><rect x="5" y="14" width="2" height="1"/><rect x="9" y="14" width="2" height="1"/><rect x="13" y="14" width="1" height="1"/><rect x="24" y="14" width="3" height="1"/><rect x="28" y="14" width="2" height="1"/><rect x="31" y="14" width="3" height="1"/><rect x="35" y="14" width="2" height="1"/><rect x="38" y="14" width="2" height="1"/><rect x="41" y="14" width="1" height="1"/><rect x="45" y="14" width="1" height="1"/><rect x="47" y="14" width="5" height="1"/><rect x="54" y="14" width="2" height="1"/><rect x="1" y="15" width="1" height="1"/><rect x="4" y="15" width="2" height="1"/><rect x="8" y="15" width="1" height="1"/><rect x="11" y="15" width="1" height="1"/><rect x="13" y="15" width="3" height="1"/><rect x="23" y="15" width="1" height="1"/><rect x="25" y="15" width="1" height="1"/><rect x="27" y="15" width="3" height="1"/><rect x="32" y="15" width="2" height="1"/><rect x="35" y="15" width="3" height="1"/><rect x="40" y="15" width="1" height="1"/><rect x="42" y="15" width="1" height="1"/><rect x="44" y="15" width="2" height="1"/><rect x="49" y="15" width="1" height="1"/><rect x="51" y="15" width="2" height="1"/><rect x="1" y="16" width="2" height="1"/><rect x="4" y="16" width="1" height="1"/><rect x="6" y="16" width="2" height="1"/><rect x="9" y="16" width="3" height="1"/><rect x="13" y="16" width="1" height="1"/><rect x="16" y="16" width="1" height="1"/><rect x="20" y="16" width="1" height="1"/><rect x="22" y="16" width="1" height="1"/><rect x="24" y="16" width="1" height="1"/><rect x="29" y="16" width="1" height="1"/><rect x="32" y="16" width="1" height="1"/><rect x="36" y="16" width="2" height="1"/><rect x="39" y="16" width="1" height="1"/><rect x="41" y="16" width="1" height="1"/><rect x="43" y="16" width="2" height="1"/><rect x="47" y="16" width="1" height="1"/><rect x="51" y="16" width="1" height="1"/><rect x="55" y="16" width="2" height="1"/><rect x="0" y="17" width="2" height="1"/><rect x="3" y="17" width="1" height="1"/><rect x="9" y="17" width="6" height="1"/><rect x="16" y="17" width="1" height="1"/><rect x="19" y="17" width="2" height="1"/><rect x="22" y="17" width="2" height="1"/><rect x="26" y="17" width="1" height="1"/><rect x="29" y="17" width="1" height="1"/><rect x="32" y="17" width="2" height="1"/><rect x="35" y="17" width="1" height="1"/><rect x="37" y="17" width="2" height="1"/><rect x="40" y="17" width="2" height="1"/><rect x="50" y="17" width="1" height="1"/><rect x="52" y="17" width="3" height="1"/><rect x="56" y="17" width="1" height="1"/><rect x="0" y="18" width="2" height="1"/><rect x="4" y="18" width="3" height="1"/><rect x="8" y="18" width="6" height="1"/><rect x="17" y="18" width="3" height="1"/><rect x="22" y="18" width="2" height="1"/><rect x="26" y="18" width="3" height="1"/><rect x="31" y="18" width="3" height="1"/><rect x="36" y="18" width="2" height="1"/><rect x="39" y="18" width="1" height="1"/><rect x="43" y="18" width="4" height="1"/><rect x="52" y="18" width="2" height="1"/><rect x="55" y="18" width="2" height="1"/><rect x="0" y="19" width="1" height="1"/><rect x="3" y="19" width="2" height="1"/><rect x="8" y="19" width="1" height="1"/><rect x="10" y="19" width="1" height="1"/><rect x="13" y="19" width="1" height="1"/><rect x="16" y="19" width="4" height="1"/><rect x="27" y="19" width="1" height="1"/><rect x="32" y="19" width="2" height="1"/><rect x="35" y="19" width="3" height="1"/><rect x="43" y="19" width="4" height="1"/><rect x="51" y="19" width="1" height="1"/><rect x="55" y="19" width="2" height="1"/><rect x="0" y="20" width="1" height="1"/><rect x="6" y="20" width="1" height="1"/><rect x="8" y="20" width="1" height="1"/><rect x="10" y="20" width="2" height="1"/><rect x="13" y="20" width="4" height="1"/><rect x="20" y="20" width="1" height="1"/><rect x="25" y="20" width="2" height="1"/><rect x="28" y="20" width="2" height="1"/><rect x="31" y="20" width="1" height="1"/><rect x="34" y="20" width="1" height="1"/><rect x="36" y="20" width="2" height="1"/><rect x="39" y="20" width="3" height="1"/><rect x="47" y="20" width="1" height="1"/><rect x="49" y="20" width="1" height="1"/><rect x="51" y="20" width="2" height="1"/><rect x="55" y="20" width="2" height="1"/><rect x="3" y="21" width="1" height="1"/><rect x="5" y="21" width="1" height="1"/><rect x="8" y="21" width="3" height="1"/><rect x="12" y="21" width="4" height="1"/><rect x="17" y="21" width="3" height="1"/><rect x="22" y="21" width="2" height="1"/><rect x="26" y="21" width="4" height="1"/><rect x="31" y="21" width="2" height="1"/><rect x="35" y="21" width="3" height="1"/><rect x="43" y="21" width="1" height="1"/><rect x="45" y="21" width="1" height="1"/><rect x="47" y="21" width="1" height="1"/><rect x="52" y="21" width="2" height="1"/><rect x="55" y="21" width="2" height="1"/><rect x="1" y="22" width="1" height="1"/><rect x="4" y="22" width="1" height="1"/><rect x="6" y="22" width="5" height="1"/><rect x="12" y="22" width="1" height="1"/><rect x="14" y="22" width="3" height="1"/><rect x="20" y="22" width="1" height="1"/><rect x="22" y="22" width="1" height="1"/><rect x="29" y="22" width="1" height="1"/><rect x="32" y="22" width="2" height="1"/><rect x="35" y="22" width="1" height="1"/><rect x="40" y="22" width="2" height="1"/><rect x="43" y="22" width="4" height="1"/><rect x="49" y="22" width="1" height="1"/><rect x="51" y="22" width="3" height="1"/><rect x="56" y="22" width="1" height="1"/><rect x="2" y="23" width="1" height="1"/><rect x="8" y="23" width="4" height="1"/><rect x="13" y="23" width="1" height="1"/><rect x="15" y="23" width="1" height="1"/><rect x="17" y="23" width="3" height="1"/><rect x="21" y="23" width="1" height="1"/><rect x="26" y="23" width="3" height="1"/><rect x="33" y="23" width="1" height="1"/><rect x="35" y="23" width="2" height="1"/><rect x="38" y="23" width="4" height="1"/><rect x="46" y="23" width="1" height="1"/><rect x="48" y="23" width="1" height="1"/><rect x="50" y="23" width="1" height="1"/><rect x="52" y="23" width="2" height="1"/><rect x="0" y="24" width="1" height="1"/><rect x="5" y="24" width="3" height="1"/><rect x="11" y="24" width="2" height="1"/><rect x="15" y="24" width="3" height="1"/><rect x="19" y="24" width="2" height="1"/><rect x="22" y="24" width="1" height="1"/><rect x="25" y="24" width="1" height="1"/><rect x="27" y="24" width="2" height="1"/><rect x="30" y="24" width="1" height="1"/><rect x="32" y="24" width="1" height="1"/><rect x="36" y="24" width="3" height="1"/><rect x="40" y="24" width="9" height="1"/><rect x="50" y="24" width="4" height="1"/><rect x="56" y="24" width="1" height="1"/><rect x="1" y="25" width="1" height="1"/><rect x="10" y="25" width="1" height="1"/><rect x="16" y="25" width="1" height="1"/><rect x="19" y="25" width="2" height="1"/><rect x="22" y="25" width="1" height="1"/><rect x="31" y="25" width="1" height="1"/><rect x="33" y="25" width="3" height="1"/><rect x="37" y="25" width="1" height="1"/><rect x="39" y="25" width="1" height="1"/><rect x="41" y="25" width="1" height="1"/><rect x="43" y="25" width="4" height="1"/><rect x="52" y="25" width="1" height="1"/><rect x="55" y="25" width="2" height="1"/><rect x="0" y="26" width="1" height="1"/><rect x="4" y="26" width="5" height="1"/><rect x="10" y="26" width="3" height="1"/><rect x="16" y="26" width="1" height="1"/><rect x="20" y="26" width="14" height="1"/><rect x="35" y="26" width="5" height="1"/><rect x="45" y="26" width="1" height="1"/><rect x="48" y="26" width="8" height="1"/><rect x="1" y="27" width="1" height="1"/><rect x="4" y="27" width="1" height="1"/><rect x="8" y="27" width="1" height="1"/><rect x="10" y="27" width="1" height="1"/><rect x="12" y="27" width="1" height="1"/><rect x="14" y="27" width="4" height="1"/><rect x="20" y="27" width="4" height="1"/><rect x="26" y="27" width="1" height="1"/><rect x="30" y="27" width="1" height="1"/><rect x="33" y="27" width="1" height="1"/><rect x="35" y="27" width="2" height="1"/><rect x="38" y="27" width="1" height="1"/><rect x="40" y="27" width="1" height="1"/><rect x="43" y="27" width="2" height="1"/><rect x="46" y="27" width="1" height="1"/><rect x="48" y="27" width="1" height="1"/><rect x="52" y="27" width="2" height="1"/><rect x="56" y="27" width="1" height="1"/><rect x="1" y="28" width="2" height="1"/><rect x="4" y="28" width="1" height="1"/><rect x="6" y="28" width="1" height="1"/><rect x="8" y="28" width="1" height="1"/><rect x="10" y="28" width="1" height="1"/><rect x="12" y="28" width="2" height="1"/><rect x="15" y="28" width="2" height="1"/><rect x="18" y="28" width="1" height="1"/><rect x="22" y="28" width="2" height="1"/><rect x="25" y="28" width="2" height="1"/><rect x="28" y="28" width="1" height="1"/><rect x="30" y="28" width="1" height="1"/><rect x="32" y="28" width="1" height="1"/><rect x="35" y="28" width="2" height="1"/><rect x="38" y="28" width="1" height="1"/><rect x="42" y="28" width="1" height="1"/><rect x="44" y="28" width="5" height="1"/><rect x="50" y="28" width="1" height="1"/><rect x="52" y="28" width="2" height="1"/><rect x="55" y="28" width="2" height="1"/><rect x="1" y="29" width="4" height="1"/><rect x="8" y="29" width="3" height="1"/><rect x="12" y="29" width="1" height="1"/><rect x="14" y="29" width="2" height="1"/><rect x="19" y="29" width="1" height="1"/><rect x="21" y="29" width="1" height="1"/><rect x="26" y="29" width="1" height="1"/><rect x="30" y="29" width="2" height="1"/><rect x="35" y="29" width="1" height="1"/><rect x="37" y="29" width="2" height="1"/><rect x="41" y="29" width="1" height="1"/><rect x="43" y="29" width="2" height="1"/><rect x="47" y="29" width="2" height="1"/><rect x="52" y="29" width="1" height="1"/><rect x="55" y="29" width="1" height="1"/><rect x="1" y="30" width="10" height="1"/><rect x="14" y="30" width="1" height="1"/><rect x="18" y="30" width="1" height="1"/><rect x="20" y="30" width="3" height="1"/><rect x="24" y="30" width="1" height="1"/><rect x="26" y="30" width="5" height="1"/><rect x="32" y="30" width="2" height="1"/><rect x="37" y="30" width="1" height="1"/><rect x="39" y="30" width="2" height="1"/><rect x="43" y="30" width="2" height="1"/><rect x="48" y="30" width="5" height="1"/><rect x="55" y="30" width="2" height="1"/><rect x="1" y="31" width="1" height="1"/><rect x="5" y="31" width="1" height="1"/><rect x="7" y="31" width="1" height="1"/><rect x="10" y="31" width="1" height="1"/><rect x="14" y="31" width="1" height="1"/><rect x="17" y="31" width="2" height="1"/><rect x="20" y="31" width="1" height="1"/><rect x="22" y="31" width="1" height="1"/><rect x="30" y="31" width="1" height="1"/><rect x="32" y="31" width="1" height="1"/><rect x="35" y="31" width="5" height="1"/><rect x="41" y="31" width="2" height="1"/><rect x="44" y="31" width="1" height="1"/><rect x="46" y="31" width="1" height="1"/><rect x="50" y="31" width="2" height="1"/><rect x="55" y="31" width="1" height="1"/><rect x="0" y="32" width="1" height="1"/><rect x="3" y="32" width="1" height="1"/><rect x="6" y="32" width="1" height="1"/><rect x="11" y="32" width="4" height="1"/><rect x="16" y="32" width="2" height="1"/><rect x="19" y="32" width="2" height="1"/><rect x="23" y="32" width="3" height="1"/><rect x="29" y="32" width="3" height="1"/><rect x="33" y="32" width="2" height="1"/><rect x="36" y="32" width="1" height="1"/><rect x="39" y="32" width="5" height="1"/><rect x="45" y="32" width="3" height="1"/><rect x="49" y="32" width="1" height="1"/><rect x="51" y="32" width="1" height="1"/><rect x="1" y="33" width="3" height="1"/><rect x="5" y="33" width="1" height="1"/><rect x="7" y="33" width="2" height="1"/><rect x="11" y="33" width="2" height="1"/><rect x="14" y="33" width="4" height="1"/><rect x="21" y="33" width="2" height="1"/><rect x="24" y="33" width="2" height="1"/><rect x="30" y="33" width="3" height="1"/><rect x="35" y="33" width="2" height="1"/><rect x="44" y="33" width="1" height="1"/><rect x="51" y="33" width="1" height="1"/><rect x="54" y="33" width="1" height="1"/><rect x="0" y="34" width="1" height="1"/><rect x="6" y="34" width="1" height="1"/><rect x="8" y="34" width="1" height="1"/><rect x="10" y="34" width="2" height="1"/><rect x="18" y="34" width="1" height="1"/><rect x="20" y="34" width="3" height="1"/><rect x="26" y="34" width="12" height="1"/><rect x="39" y="34" width="1" height="1"/><rect x="41" y="34" width="2" height="1"/><rect x="46" y="34" width="1" height="1"/><rect x="48" y="34" width="3" height="1"/><rect x="52" y="34" width="1" height="1"/><rect x="0" y="35" width="1" height="1"/><rect x="2" y="35" width="4" height="1"/><rect x="7" y="35" width="2" height="1"/><rect x="17" y="35" width="3" height="1"/><rect x="21" y="35" width="5" height="1"/><rect x="28" y="35" width="1" height="1"/><rect x="30" y="35" width="2" height="1"/><rect x="33" y="35" width="1" height="1"/><rect x="37" y="35" width="2" height="1"/><rect x="40" y="35" width="1" height="1"/><rect x="43" y="35" width="1" height="1"/><rect x="46" y="35" width="3" height="1"/><rect x="51" y="35" width="1" height="1"/><rect x="55" y="35" width="2" height="1"/><rect x="0" y="36" width="1" height="1"/><rect x="2" y="36" width="1" height="1"/><rect x="5" y="36" width="2" height="1"/><rect x="9" y="36" width="1" height="1"/><rect x="11" y="36" width="2" height="1"/><rect x="15" y="36" width="2" height="1"/><rect x="18" y="36" width="3" height="1"/><rect x="23" y="36" width="1" height="1"/><rect x="29" y="36" width="8" height="1"/><rect x="40" y="36" width="6" height="1"/><rect x="48" y="36" width="1" height="1"/><rect x="50" y="36" width="1" height="1"/><rect x="56" y="36" width="1" height="1"/><rect x="0" y="37" width="1" height="1"/><rect x="3" y="37" width="2" height="1"/><rect x="7" y="37" width="5" height="1"/><rect x="14" y="37" width="1" height="1"/><rect x="20" y="37" width="2" height="1"/><rect x="23" y="37" width="1" height="1"/><rect x="28" y="37" width="1" height="1"/><rect x="32" y="37" width="3" height="1"/><rect x="36" y="37" width="1" height="1"/><rect x="39" y="37" width="2" height="1"/><rect x="43" y="37" width="2" height="1"/><rect x="46" y="37" width="1" height="1"/><rect x="52" y="37" width="1" height="1"/><rect x="55" y="37" width="1" height="1"/><rect x="0" y="38" width="2" height="1"/><rect x="6" y="38" width="2" height="1"/><rect x="10" y="38" width="7" height="1"/><rect x="18" y="38" width="1" height="1"/><rect x="20" y="38" width="2" height="1"/><rect x="24" y="38" width="2" height="1"/><rect x="29" y="38" width="3" height="1"/><rect x="35" y="38" width="2" height="1"/><rect x="38" y="38" width="1" height="1"/><rect x="40" y="38" width="1" height="1"/><rect x="43" y="38" width="2" height="1"/><rect x="47" y="38" width="3" height="1"/><rect x="51" y="38" width="5" height="1"/><rect x="0" y="39" width="1" height="1"/><rect x="4" y="39" width="1" height="1"/><rect x="7" y="39" width="2" height="1"/><rect x="10" y="39" width="3" height="1"/><rect x="16" y="39" width="1" height="1"/><rect x="20" y="39" width="1" height="1"/><rect x="26" y="39" width="2" height="1"/><rect x="30" y="39" width="3" height="1"/><rect x="34" y="39" width="3" height="1"/><rect x="38" y="39" width="1" height="1"/><rect x="40" y="39" width="2" height="1"/><rect x="44" y="39" width="2" height="1"/><rect x="48" y="39" width="3" height="1"/><rect x="55" y="39" width="2" height="1"/><rect x="0" y="40" width="1" height="1"/><rect x="2" y="40" width="1" height="1"/><rect x="4" y="40" width="4" height="1"/><rect x="9" y="40" width="1" height="1"/><rect x="11" y="40" width="1" height="1"/><rect x="16" y="40" width="1" height="1"/><rect x="18" y="40" width="1" height="1"/><rect x="20" y="40" width="4" height="1"/><rect x="25" y="40" width="1" height="1"/><rect x="28" y="40" width="2" height="1"/><rect x="31" y="40" width="6" height="1"/><rect x="38" y="40" width="2" height="1"/><rect x="41" y="40" width="1" height="1"/><rect x="43" y="40" width="2" height="1"/><rect x="46" y="40" width="1" height="1"/><rect x="49" y="40" width="5" height="1"/><rect x="56" y="40" width="1" height="1"/><rect x="0" y="41" width="1" height="1"/><rect x="2" y="41" width="2" height="1"/><rect x="5" y="41" width="1" height="1"/><rect x="7" y="41" width="1" height="1"/><rect x="9" y="41" width="1" height="1"/><rect x="15" y="41" width="1" height="1"/><rect x="17" y="41" width="1" height="1"/><rect x="21" y="41" width="1" height="1"/><rect x="25" y="41" width="1" height="1"/><rect x="29" y="41" width="3" height="1"/><rect x="35" y="41" width="1" height="1"/><rect x="37" y="41" width="3" height="1"/><rect x="41" y="41" width="1" height="1"/><rect x="43" y="41" width="2" height="1"/><rect x="50" y="41" width="2" height="1"/><rect x="55" y="41" width="1" height="1"/><rect x="1" y="42" width="3" height="1"/><rect x="5" y="42" width="3" height="1"/><rect x="10" y="42" width="1" height="1"/><rect x="12" y="42" width="4" height="1"/><rect x="23" y="42" width="3" height="1"/><rect x="28" y="42" width="3" height="1"/><rect x="32" y="42" width="1" height="1"/><rect x="35" y="42" width="3" height="1"/><rect x="39" y="42" width="2" height="1"/><rect x="43" y="42" width="2" height="1"/><rect x="47" y="42" width="1" height="1"/><rect x="49" y="42" width="5" height="1"/><rect x="55" y="42" width="2" height="1"/><rect x="0" y="43" width="1" height="1"/><rect x="4" y="43" width="1" height="1"/><rect x="9" y="43" width="1" height="1"/><rect x="13" y="43" width="2" height="1"/><rect x="17" y="43" width="2" height="1"/><rect x="20" y="43" width="2" height="1"/><rect x="26" y="43" width="1" height="1"/><rect x="28" y="43" width="3" height="1"/><rect x="32" y="43" width="3" height="1"/><rect x="36" y="43" width="1" height="1"/><rect x="39" y="43" width="1" height="1"/><rect x="44" y="43" width="3" height="1"/><rect x="50" y="43" width="3" height="1"/><rect x="55" y="43" width="2" height="1"/><rect x="2" y="44" width="3" height="1"/><rect x="6" y="44" width="1" height="1"/><rect x="9" y="44" width="1" height="1"/><rect x="12" y="44" width="1" height="1"/><rect x="15" y="44" width="2" height="1"/><rect x="19" y="44" width="4" height="1"/><rect x="26" y="44" width="2" height="1"/><rect x="30" y="44" width="2" height="1"/><rect x="35" y="44" width="2" height="1"/><rect x="38" y="44" width="3" height="1"/><rect x="43" y="44" width="1" height="1"/><rect x="45" y="44" width="5" height="1"/><rect x="53" y="44" width="1" height="1"/><rect x="1" y="45" width="1" height="1"/><rect x="4" y="45" width="2" height="1"/><rect x="9" y="45" width="1" height="1"/><rect x="13" y="45" width="1" height="1"/><rect x="17" y="45" width="1" height="1"/><rect x="19" y="45" width="2" height="1"/><rect x="25" y="45" width="1" height="1"/><rect x="27" y="45" width="1" height="1"/><rect x="29" y="45" width="2" height="1"/><rect x="40" y="45" width="1" height="1"/><rect x="45" y="45" width="1" height="1"/><rect x="47" y="45" width="2" height="1"/><rect x="55" y="45" width="2" height="1"/><rect x="0" y="46" width="1" height="1"/><rect x="2" y="46" width="1" height="1"/><rect x="5" y="46" width="2" height="1"/><rect x="8" y="46" width="6" height="1"/><rect x="16" y="46" width="1" height="1"/><rect x="18" y="46" width="1" height="1"/><rect x="23" y="46" width="2" height="1"/><rect x="28" y="46" width="1" height="1"/><rect x="30" y="46" width="1" height="1"/><rect x="32" y="46" width="3" height="1"/><rect x="39" y="46" width="2" height="1"/><rect x="42" y="46" width="2" height="1"/><rect x="46" y="46" width="2" height="1"/><rect x="49" y="46" width="2" height="1"/><rect x="53" y="46" width="1" height="1"/><rect x="56" y="46" width="1" height="1"/><rect x="0" y="47" width="5" height="1"/><rect x="7" y="47" width="1" height="1"/><rect x="10" y="47" width="1" height="1"/><rect x="12" y="47" width="2" height="1"/><rect x="17" y="47" width="1" height="1"/><rect x="21" y="47" width="2" height="1"/><rect x="24" y="47" width="2" height="1"/><rect x="27" y="47" width="1" height="1"/><rect x="29" y="47" width="2" height="1"/><rect x="33" y="47" width="1" height="1"/><rect x="36" y="47" width="2" height="1"/><rect x="39" y="47" width="2" height="1"/><rect x="42" y="47" width="1" height="1"/><rect x="46" y="47" width="1" height="1"/><rect x="48" y="47" width="1" height="1"/><rect x="52" y="47" width="1" height="1"/><rect x="56" y="47" width="1" height="1"/><rect x="6" y="48" width="2" height="1"/><rect x="10" y="48" width="1" height="1"/><rect x="13" y="48" width="4" height="1"/><rect x="18" y="48" width="1" height="1"/><rect x="20" y="48" width="4" height="1"/><rect x="26" y="48" width="8" height="1"/><rect x="35" y="48" width="4" height="1"/><rect x="40" y="48" width="7" height="1"/><rect x="48" y="48" width="6" height="1"/><rect x="55" y="48" width="1" height="1"/><rect x="8" y="49" width="1" height="1"/><rect x="10" y="49" width="1" height="1"/><rect x="12" y="49" width="2" height="1"/><rect x="15" y="49" width="2" height="1"/><rect x="20" y="49" width="3" height="1"/><rect x="26" y="49" width="1" height="1"/><rect x="30" y="49" width="2" height="1"/><rect x="34" y="49" width="1" height="1"/><rect x="36" y="49" width="1" height="1"/><rect x="39" y="49" width="1" height="1"/><rect x="44" y="49" width="1" height="1"/><rect x="46" y="49" width="1" height="1"/><rect x="48" y="49" width="1" height="1"/><rect x="52" y="49" width="2" height="1"/><rect x="56" y="49" width="1" height="1"/><rect x="9" y="50" width="1" height="1"/><rect x="11" y="50" width="1" height="1"/><rect x="14" y="50" width="1" height="1"/><rect x="21" y="50" width="6" height="1"/><rect x="28" y="50" width="1" height="1"/><rect x="30" y="50" width="1" height="1"/><rect x="33" y="50" width="1" height="1"/><rect x="35" y="50" width="4" height="1"/><rect x="40" y="50" width="2" height="1"/><rect x="43" y="50" width="1" height="1"/><rect x="47" y="50" width="2" height="1"/><rect x="50" y="50" width="1" height="1"/><rect x="52" y="50" width="2" height="1"/><rect x="55" y="50" width="1" height="1"/><rect x="8" y="51" width="1" height="1"/><rect x="10" y="51" width="1" height="1"/><rect x="13" y="51" width="1" height="1"/><rect x="15" y="51" width="3" height="1"/><rect x="22" y="51" width="1" height="1"/><rect x="25" y="51" width="2" height="1"/><rect x="30" y="51" width="1" height="1"/><rect x="32" y="51" width="1" height="1"/><rect x="35" y="51" width="3" height="1"/><rect x="39" y="51" width="2" height="1"/><rect x="42" y="51" width="4" height="1"/><rect x="48" y="51" width="1" height="1"/><rect x="52" y="51" width="1" height="1"/><rect x="10" y="52" width="1" height="1"/><rect x="14" y="52" width="2" height="1"/><rect x="19" y="52" width="1" height="1"/><rect x="21" y="52" width="2" height="1"/><rect x="24" y="52" width="7" height="1"/><rect x="32" y="52" width="1" height="1"/><rect x="34" y="52" width="1" height="1"/><rect x="36" y="52" width="1" height="1"/><rect x="38" y="52" width="2" height="1"/><rect x="41" y="52" width="1" height="1"/><rect x="44" y="52" width="1" height="1"/><rect x="46" y="52" width="1" height="1"/><rect x="48" y="52" width="5" height="1"/><rect x="55" y="52" width="2" height="1"/><rect x="8" y="53" width="4" height="1"/><rect x="13" y="53" width="1" height="1"/><rect x="16" y="53" width="1" height="1"/><rect x="18" y="53" width="2" height="1"/><rect x="21" y="53" width="2" height="1"/><rect x="25" y="53" width="1" height="1"/><rect x="27" y="53" width="2" height="1"/><rect x="31" y="53" width="1" height="1"/><rect x="33" y="53" width="1" height="1"/><rect x="35" y="53" width="1" height="1"/><rect x="38" y="53" width="1" height="1"/><rect x="40" y="53" width="2" height="1"/><rect x="43" y="53" width="3" height="1"/><rect x="50" y="53" width="1" height="1"/><rect x="52" y="53" width="2" height="1"/><rect x="55" y="53" width="2" height="1"/><rect x="13" y="54" width="1" height="1"/><rect x="15" y="54" width="1" height="1"/><rect x="17" y="54" width="3" height="1"/><rect x="26" y="54" width="3" height="1"/><rect x="30" y="54" width="4" height="1"/><rect x="36" y="54" width="2" height="1"/><rect x="40" y="54" width="2" height="1"/><rect x="43" y="54" width="1" height="1"/><rect x="45" y="54" width="1" height="1"/><rect x="47" y="54" width="2" height="1"/><rect x="51" y="54" width="4" height="1"/><rect x="56" y="54" width="1" height="1"/><rect x="12" y="55" width="1" height="1"/><rect x="15" y="55" width="4" height="1"/><rect x="21" y="55" width="1" height="1"/><rect x="26" y="55" width="1" height="1"/><rect x="28" y="55" width="1" height="1"/><rect x="31" y="55" width="2" height="1"/><rect x="34" y="55" width="1" height="1"/><rect x="36" y="55" width="2" height="1"/><rect x="41" y="55" width="1" height="1"/><rect x="44" y="55" width="1" height="1"/><rect x="47" y="55" width="3" height="1"/><rect x="51" y="55" width="3" height="1"/><rect x="8" y="56" width="4" height="1"/><rect x="13" y="56" width="1" height="1"/><rect x="15" y="56" width="1" height="1"/><rect x="18" y="56" width="1" height="1"/><rect x="20" y="56" width="1" height="1"/><rect x="23" y="56" width="1" height="1"/><rect x="30" y="56" width="2" height="1"/><rect x="35" y="56" width="3" height="1"/><rect x="39" y="56" width="5" height="1"/><rect x="46" y="56" width="3" height="1"/><rect x="50" y="56" width="3" height="1"/><rect x="55" y="56" width="1" height="1"/></svg>